<svg width="139" height="44" viewBox="0 0 139 44" fill="none" xmlns="http://www.w3.org/2000/svg">
<path d="M13.2844 23.1273C12.6369 23.3787 11.9057 23.1045 11.5857 22.4875L5.64433 11.0465C4.95117 9.69061 5.47675 8.03768 6.83261 7.34452C6.9164 7.30643 6.99257 7.26834 7.07636 7.23026C8.60742 6.61327 10.2908 7.51209 10.7174 9.066L10.725 9.08885L14.0994 21.5125C14.2746 22.1752 13.9242 22.876 13.2844 23.1273Z" fill="#F98500"/>
<path d="M12.9644 17.3611L11.281 18.0238C10.9687 18.1381 10.6183 17.9857 10.4888 17.6734C10.367 17.3611 10.5193 17.0031 10.8316 16.8813L12.6369 16.1729L12.9644 17.3611Z" fill="#FA6D00"/>
<path d="M13.6195 19.7452L12.1723 20.286C11.86 20.3926 11.5172 20.2479 11.3801 19.9356C11.2582 19.6233 11.4105 19.2653 11.7305 19.1434L13.2996 18.5569L13.6195 19.7452Z" fill="#FA6D00"/>
<path d="M20.4521 11.9375C19.9418 11.5871 19.6828 10.9701 19.7971 10.3532C20.0789 8.93636 19.1648 7.55765 17.7404 7.26819C17.7252 7.26819 17.7023 7.26058 17.6871 7.26058C17.1006 7.16155 16.6131 6.74261 16.4303 6.17132C16.3846 6.03421 16.3312 5.8971 16.2703 5.76761C15.6229 4.47269 14.0537 3.9471 12.7588 4.59456C11.5324 5.20394 10.984 6.65882 11.502 7.92327C11.7686 8.57835 11.898 9.17249 11.4486 9.80472C10.6107 10.9854 10.8926 12.6231 12.0732 13.4534C12.0809 13.461 12.0961 13.4686 12.1037 13.4762C12.6141 13.8342 12.8578 14.4588 12.7359 15.0682C12.4617 16.485 13.391 17.8637 14.8154 18.1379C16.0951 18.3817 17.352 17.658 17.7861 16.4317C19.0811 17.0791 20.6502 16.5459 21.2977 15.2586C21.8766 14.0932 21.5186 12.684 20.4521 11.9375Z" fill="#598C44"/>
<path d="M26.3935 14.0324C26.0508 13.5144 26.0431 12.8441 26.3783 12.3185C27.1781 11.115 26.8429 9.48489 25.6394 8.68509C25.6242 8.67747 25.609 8.66223 25.5937 8.65462C24.8472 8.18235 24.9006 7.51204 24.8396 6.7427C24.733 5.30306 23.4685 4.22141 22.0289 4.32806C20.6654 4.4347 19.6066 5.56966 19.6066 6.94075C19.6066 7.64915 19.5 8.24329 18.8525 8.66223C17.6338 9.43919 17.2758 11.0616 18.0603 12.2804C18.0679 12.288 18.0756 12.3032 18.0832 12.3109C18.4183 12.8365 18.4183 13.5068 18.0679 14.0247C17.2834 15.2359 17.6261 16.8583 18.8373 17.6505C19.9265 18.3589 21.3738 18.1609 22.2269 17.1859C23.1867 18.2675 24.8396 18.3741 25.9213 17.422C26.8963 16.5689 27.0943 15.1216 26.3935 14.0324Z" fill="#5F9548"/>
<path d="M30.4687 21.3906L23.1562 18.9531L27.1857 6.87223C27.6732 5.41734 29.1586 4.29 30.7049 4.32809C31.6646 4.35094 32.5635 4.53375 33.3176 5.14312C34.5363 6.11812 35.0162 7.7482 34.5211 9.22594L30.4687 21.3906Z" fill="#FFB531"/>
<path d="M25.5938 15.2969V37.2344H7.3125V15.2969L9.14062 16.5156L10.9688 15.2969L12.7969 16.5156L14.625 15.2969L16.4531 16.5156L18.2812 15.2969L20.1094 16.5156L21.9375 15.2969L23.7656 16.5156L25.5938 15.2969Z" fill="#FFB531"/>
<path d="M25.5938 20.3469V37.2342H7.3125V33.5399C14.0232 31.2852 20.673 27.1795 25.5938 20.3469Z" fill="#FCAC1F"/>
<path d="M32.9062 15.2969V37.2344H25.5938V15.2969L27.4219 16.5156L29.25 15.2969L31.0781 16.5156L32.9062 15.2969Z" fill="#F98500"/>
<path d="M7.42676 39.6719C10.1191 39.6719 12.3018 37.4893 12.3018 34.7969C12.3018 32.1045 10.1191 29.9219 7.42676 29.9219C4.73437 29.9219 2.55176 32.1045 2.55176 34.7969C2.55176 37.4893 4.73437 39.6719 7.42676 39.6719Z" fill="#F35244"/>
<path d="M17.6719 26.875L18.2812 28.0938C17.5271 28.8479 17.2225 29.9447 17.4814 30.9883L17.6719 31.75H15.2344V30.8207C15.2344 29.1525 16.1789 27.6215 17.6719 26.875Z" fill="#5F9548"/>
<path d="M14.0994 39.6719C13.3301 39.6719 12.6445 39.1691 12.4236 38.4303L11.0525 33.8523C10.6717 32.5803 11.5096 31.1406 12.9187 31.1406C13.6043 31.1406 14.2365 31.4986 14.5869 32.0852L15.8437 34.1875V37.9275C15.8437 38.8873 15.0592 39.6719 14.0994 39.6719Z" fill="#FA9F0C"/>
<path d="M18.8068 39.6719C19.5762 39.6719 20.2617 39.1691 20.4826 38.4303L21.8537 33.8523C22.2422 32.565 21.3891 31.1406 19.9875 31.1406C19.302 31.1406 18.6697 31.4986 18.3193 32.0852L17.0625 34.1875V37.9275C17.0625 38.8873 17.8471 39.6719 18.8068 39.6719Z" fill="#FA9F0C"/>
<path d="M16.4531 31.1406C17.4662 31.1406 18.2812 31.9557 18.2812 32.9688V37.8438C18.2812 38.8568 17.4662 39.6719 16.4531 39.6719C15.44 39.6719 14.625 38.8568 14.625 37.8438V32.9688C14.625 31.9557 15.44 31.1406 16.4531 31.1406Z" fill="#FFB531"/>
<path d="M33.6984 4.6708C32.5711 3.76436 31.0248 3.49014 29.5547 3.9167C28.1226 4.33564 27.0486 5.34873 26.6068 6.68174L24.1465 14.0704L23.857 13.6438L22.8363 14.3218V11.8614L24.5273 10.7341L23.8494 9.721L22.8287 10.3989V7.60342H21.6099V10.3913L20.5968 9.71338L19.9189 10.7265L21.6099 11.8538V14.3142L20.5968 13.6362L19.9189 14.6493L20.8558 15.2739L20.1017 15.7767L18.6088 14.7864C18.5402 14.7407 18.4716 14.7103 18.3955 14.695C18.4412 14.5808 18.5021 14.4665 18.5707 14.3599C19.0429 13.6362 19.0429 12.7069 18.5783 11.9757C18.1517 11.3282 18.167 10.3608 18.6088 9.71338C18.7992 9.43916 19.5761 8.8831 19.7818 8.60889C20.1855 8.07568 20.2312 7.46631 20.2769 6.93311C20.3074 6.51416 20.3379 6.14854 20.5207 5.8667C21.1072 4.92979 22.3488 4.64795 23.2857 5.23447C23.4838 5.35635 23.6513 5.51631 23.7961 5.6915C24.1236 6.10283 24.1541 6.51416 24.1922 7.07021C24.2074 7.26064 24.2226 7.46631 24.2455 7.67959L25.4566 7.52725C25.4338 7.34443 25.4185 7.16162 25.4109 6.98643C25.3652 6.32373 25.3119 5.6458 24.7558 4.9374C23.6513 3.53584 21.6252 3.29971 20.2236 4.39658C19.9341 4.6251 19.6828 4.89932 19.4847 5.21162C19.1496 5.74482 19.1039 6.32373 19.0582 6.82646C19.0506 6.94072 19.0429 7.04736 19.0277 7.154C18.6545 6.90264 18.2279 6.72744 17.7785 6.64365C17.4129 6.58271 17.1082 6.32373 16.9939 5.97334C16.7273 5.14307 16.1484 4.45752 15.3715 4.06143C14.6097 3.65771 13.7185 3.58154 12.8959 3.84814C11.6847 4.25186 10.8011 5.38682 10.6945 6.68936C10.6564 7.18447 10.7783 7.61865 10.9002 8.00713C10.3289 7.07021 9.33102 6.47607 8.23414 6.40752L8.257 3.70342L7.03825 3.6958L7.02301 5.45537L6.29176 3.58154L5.17965 4.04619L5.9109 5.92002L4.70739 4.64033L3.82379 5.47061L5.67477 7.45107C4.6693 8.48701 4.43317 10.0409 5.10348 11.3206L6.36793 13.7581L7.44957 13.1944L6.18512 10.7569C5.6443 9.71338 6.04801 8.42607 7.09157 7.88525C8.13512 7.34443 9.42243 7.74814 9.96325 8.7917C10.0318 8.92881 10.0851 9.06592 10.1308 9.21826L10.1537 9.29443L8.18844 10.0638L8.63024 11.1987L10.4736 10.4827V10.4903C10.3593 10.9245 10.3289 11.3739 10.405 11.8233L9.07965 12.3413L9.52145 13.4763L10.8316 12.9659C11.1363 13.4763 11.6619 13.9485 11.6619 13.9485L9.96325 14.6112L10.1613 15.1063L9.14821 15.7843L7.65524 14.794C7.3734 14.6036 7.00016 14.6798 6.80973 14.9616C6.74117 15.0606 6.71071 15.1825 6.71071 15.2968V28.0936H7.92946V16.4317L8.81305 17.0183C9.01871 17.1554 9.28532 17.1554 9.49098 17.0183L10.9839 16.028L12.4769 17.0183C12.6826 17.1554 12.9492 17.1554 13.1548 17.0183L14.6478 16.028L16.1408 17.0183C16.3464 17.1554 16.6131 17.1554 16.8187 17.0183L18.3117 16.028L19.8047 17.0183C20.0103 17.1554 20.2769 17.1554 20.4826 17.0183L21.9756 16.028L23.4685 17.0183C23.6742 17.1554 23.9408 17.1554 24.1465 17.0183L25.03 16.4317V36.6249H22.5925V37.8436H32.9519C33.2871 37.8436 33.5613 37.5694 33.5613 37.2343V15.2968C33.5613 15.114 33.4775 14.9464 33.3404 14.8321L35.1457 9.42393C35.6713 7.70244 35.1076 5.80576 33.6984 4.6708ZM17.5728 12.6612C17.6261 12.745 17.6642 12.8364 17.6871 12.9354L17.2681 13.5524L16.3388 11.2673L17.1539 10.0638C16.9406 10.9397 17.0777 11.9147 17.5728 12.6612ZM13.3224 15.4415C13.4824 14.794 13.3529 14.1161 12.9797 13.5677C12.6216 13.0497 12.0504 12.6917 11.7609 12.128C11.6086 11.831 11.5476 11.4882 11.5857 11.153C11.6771 10.4065 12.2408 9.78193 12.3246 9.03545C12.3855 8.48701 12.1646 7.95381 12.0504 7.41299C11.7838 6.21709 12.5379 5.00596 13.8252 4.94502C14.4498 4.92217 15.0439 5.18877 15.44 5.66865C15.7904 6.10283 15.9504 6.67412 16.3007 7.11592C16.5597 7.44346 16.9101 7.67959 17.3062 7.79385C17.6947 7.9081 18.1517 7.92334 18.4107 8.23564C17.9613 8.55557 17.5957 8.97451 17.3443 9.46963L16.4759 8.89072L15.7904 9.88096L14.7392 7.31396L13.6195 7.771L14.6631 10.3456L13.4748 10.1171L13.231 11.3054L15.1886 11.7472L16.1408 13.9866L14.9525 13.7581L14.8078 14.4741C14.8002 14.4817 13.6347 15.213 13.3224 15.4415ZM15.44 15.1063L16.6968 15.3653L16.7806 15.571L16.4531 15.7843L15.44 15.1063ZM23.3009 15.472L23.7732 15.1521L23.598 15.67L23.3009 15.472ZM26.2031 16.4317L27.0867 17.0183C27.2924 17.1554 27.559 17.1554 27.7646 17.0183L28.6482 16.4317V33.319L26.2107 35.7565V16.4317H26.2031ZM32.2968 16.4317V35.7565L29.8593 33.319V16.4317L30.7429 17.0183C30.9486 17.1554 31.2152 17.1554 31.4209 17.0183L32.2968 16.4317ZM29.25 34.4388L31.4361 36.6249H27.0638L29.25 34.4388ZM33.9422 9.03545L31.8703 15.2511L31.0781 15.7767L29.5851 14.7864C29.3795 14.6493 29.1129 14.6493 28.9072 14.7864L27.4142 15.7767C27.4142 15.7767 25.8908 14.7636 25.8756 14.756C25.6775 14.6493 25.4338 14.6645 25.2509 14.7864L25.1595 14.8474L27.757 7.0626C28.0769 6.11045 28.8539 5.39443 29.8974 5.08213C30.9791 4.76221 32.114 4.96025 32.9367 5.61533C33.9498 6.43799 34.3535 7.80147 33.9422 9.03545Z" fill="black"/>
<path d="M28.5291 8.61157L32.1867 8.0032L32.3866 9.20489L28.729 9.81326L28.5291 8.61157Z" fill="black"/>
<path d="M27.3093 12.2659L30.9669 11.6575L31.1668 12.8592L27.5092 13.4676L27.3093 12.2659Z" fill="black"/>
<path d="M19.9951 30.5312C19.3248 30.5236 18.6773 30.7902 18.2051 31.2701C18.1974 31.2625 18.1898 31.2548 18.1822 31.2396L18.0832 30.8359C18.0832 30.8283 18.0832 30.8283 18.0756 30.8207C17.8394 29.9904 18.3117 28.9392 18.723 28.5279C18.9058 28.3451 18.9516 28.0556 18.8373 27.8271L18.2279 26.6084C18.0756 26.3037 17.7099 26.1818 17.4129 26.3341C15.7066 27.1796 14.6326 28.924 14.6402 30.8207V31.1482C14.4955 31.0416 14.3355 30.9425 14.1756 30.8511C12.9949 30.2189 11.4639 30.615 10.7631 31.7271C10.3594 32.3746 10.2527 33.2505 10.4812 34.0199L11.2734 36.663C10.2223 38.773 7.66288 39.6337 5.55292 38.5902C3.46581 37.5543 2.59745 35.033 3.60292 32.9306C3.61815 32.9002 3.63339 32.8697 3.64862 32.8392L3.67147 34.9111L4.89022 34.8959L4.85214 32.3593L7.28202 32.4736L7.34296 31.2548L5.22538 31.1558C5.8576 30.7673 6.58885 30.5541 7.32772 30.5312C8.21132 30.5084 9.07968 30.7597 9.81093 31.2548L10.4889 30.2418C9.11776 29.3201 7.40389 29.0687 5.82714 29.5486L6.08612 28.9392L4.96639 28.4593L4.1285 30.4093C4.06757 30.455 3.99901 30.5084 3.93807 30.5617L2.07948 28.7031L1.21874 29.5638L3.09257 31.4377C3.05448 31.491 3.01639 31.5443 2.97831 31.5976L0.982605 32.4507L1.46249 33.5705L2.16327 33.2658C1.31776 36.1755 2.99354 39.2148 5.90331 40.0603C7.82284 40.6164 9.89471 40.0832 11.3115 38.6664C11.4562 38.5216 11.5933 38.3617 11.7228 38.2017L11.8447 38.5978C12.218 39.847 13.5281 40.5478 14.7773 40.1746C14.9525 40.1212 15.1125 40.0527 15.2724 39.9613C16.0113 40.3726 16.9101 40.3726 17.649 39.9613C18.7764 40.6087 20.216 40.2127 20.8635 39.0853C20.9549 38.933 21.0234 38.7654 21.0767 38.5902L22.4478 34.0123C22.5316 33.7076 22.5697 33.3877 22.5545 33.0677C22.5469 31.6738 21.4043 30.5312 19.9951 30.5312ZM17.4205 27.7357L17.5576 28.0099C17.0777 28.6726 16.7349 29.64 16.7959 30.5541C16.6207 30.5236 16.1408 30.5007 15.8514 30.6074C15.9123 29.4572 16.4912 28.406 17.4205 27.7357ZM13.0101 38.255L11.6391 33.6771C11.5096 33.2429 11.5705 32.725 11.7838 32.3822C12.1342 31.8185 12.9797 31.6052 13.5891 31.9328C13.8785 32.0851 13.9928 32.1918 14.107 32.3365C14.0537 32.5421 14.0232 32.7554 14.0232 32.9687V37.8437C14.0232 38.2627 14.1299 38.674 14.3355 39.0396C13.749 39.1615 13.1777 38.8187 13.0101 38.255ZM15.2344 37.8437V32.9687C15.2344 32.2984 15.7828 31.75 16.4531 31.75C17.1234 31.75 17.6719 32.2984 17.6719 32.9687V37.8437C17.6719 38.514 17.1234 39.0625 16.4531 39.0625C15.7828 39.0625 15.2344 38.514 15.2344 37.8437ZM21.2748 33.6771L19.9037 38.255C19.7361 38.8187 19.1572 39.1615 18.5783 39.0396C18.784 38.674 18.8906 38.2627 18.8906 37.8437V32.9687C18.8906 32.7783 18.8678 32.5955 18.8221 32.4127C18.982 32.1689 19.3476 31.75 19.9875 31.75C20.7264 31.75 21.3205 32.3517 21.3205 33.083C21.3357 33.281 21.3205 33.4867 21.2748 33.6771Z" fill="black"/>
<path d="M49.919 6.3C50.255 6.3 50.549 6.426 50.801 6.678C51.067 6.916 51.2 7.217 51.2 7.581V19.719C51.2 20.083 51.067 20.391 50.801 20.643C50.535 20.881 50.227 21 49.877 21C49.485 21 49.17 20.881 48.932 20.643C48.694 20.391 48.575 20.083 48.575 19.719V7.581C48.575 7.217 48.701 6.916 48.953 6.678C49.205 6.426 49.527 6.3 49.919 6.3ZM59.222 6.3C59.614 6.3 59.929 6.426 60.167 6.678C60.405 6.916 60.524 7.217 60.524 7.581V19.719C60.524 20.083 60.398 20.391 60.146 20.643C59.908 20.881 59.586 21 59.18 21C58.844 21 58.543 20.881 58.277 20.643C58.025 20.391 57.899 20.083 57.899 19.719V7.581C57.899 7.217 58.032 6.916 58.298 6.678C58.564 6.426 58.872 6.3 59.222 6.3ZM49.856 12.411H59.222V14.826H49.856V12.411ZM72.6568 9.555C73.0208 9.555 73.3218 9.674 73.5598 9.912C73.7978 10.15 73.9168 10.458 73.9168 10.836V19.719C73.9168 20.083 73.7978 20.391 73.5598 20.643C73.3218 20.881 73.0208 21 72.6568 21C72.2928 21 71.9918 20.881 71.7538 20.643C71.5158 20.391 71.3968 20.083 71.3968 19.719V18.69L71.8588 18.879C71.8588 19.061 71.7608 19.285 71.5648 19.551C71.3688 19.803 71.1028 20.055 70.7668 20.307C70.4308 20.559 70.0318 20.776 69.5698 20.958C69.1218 21.126 68.6318 21.21 68.0998 21.21C67.1338 21.21 66.2588 20.965 65.4748 20.475C64.6908 19.971 64.0678 19.285 63.6058 18.417C63.1578 17.535 62.9338 16.527 62.9338 15.393C62.9338 14.245 63.1578 13.237 63.6058 12.369C64.0678 11.487 64.6838 10.801 65.4538 10.311C66.2238 9.807 67.0778 9.555 68.0158 9.555C68.6178 9.555 69.1708 9.646 69.6748 9.828C70.1788 10.01 70.6128 10.241 70.9768 10.521C71.3548 10.801 71.6418 11.088 71.8378 11.382C72.0478 11.662 72.1528 11.9 72.1528 12.096L71.3968 12.369V10.836C71.3968 10.472 71.5158 10.171 71.7538 9.933C71.9918 9.681 72.2928 9.555 72.6568 9.555ZM68.4148 18.9C69.0308 18.9 69.5698 18.746 70.0318 18.438C70.4938 18.13 70.8508 17.71 71.1028 17.178C71.3688 16.646 71.5018 16.051 71.5018 15.393C71.5018 14.721 71.3688 14.119 71.1028 13.587C70.8508 13.055 70.4938 12.635 70.0318 12.327C69.5698 12.019 69.0308 11.865 68.4148 11.865C67.8128 11.865 67.2808 12.019 66.8188 12.327C66.3568 12.635 65.9928 13.055 65.7268 13.587C65.4748 14.119 65.3488 14.721 65.3488 15.393C65.3488 16.051 65.4748 16.646 65.7268 17.178C65.9928 17.71 66.3568 18.13 66.8188 18.438C67.2808 18.746 67.8128 18.9 68.4148 18.9ZM82.6513 9.555C83.6873 9.555 84.4713 9.772 85.0033 10.206C85.5493 10.64 85.9203 11.221 86.1163 11.949C86.3263 12.663 86.4313 13.461 86.4313 14.343V19.719C86.4313 20.083 86.3123 20.391 86.0743 20.643C85.8363 20.881 85.5353 21 85.1713 21C84.8073 21 84.5063 20.881 84.2683 20.643C84.0303 20.391 83.9113 20.083 83.9113 19.719V14.343C83.9113 13.881 83.8483 13.468 83.7223 13.104C83.6103 12.726 83.4003 12.425 83.0923 12.201C82.7843 11.977 82.3433 11.865 81.7693 11.865C81.2093 11.865 80.7333 11.977 80.3413 12.201C79.9633 12.425 79.6693 12.726 79.4593 13.104C79.2633 13.468 79.1653 13.881 79.1653 14.343V19.719C79.1653 20.083 79.0463 20.391 78.8083 20.643C78.5703 20.881 78.2693 21 77.9053 21C77.5413 21 77.2403 20.881 77.0023 20.643C76.7643 20.391 76.6453 20.083 76.6453 19.719V11.046C76.6453 10.682 76.7643 10.381 77.0023 10.143C77.2403 9.891 77.5413 9.765 77.9053 9.765C78.2693 9.765 78.5703 9.891 78.8083 10.143C79.0463 10.381 79.1653 10.682 79.1653 11.046V11.949L78.8503 11.886C78.9763 11.648 79.1583 11.396 79.3963 11.13C79.6343 10.85 79.9143 10.591 80.2363 10.353C80.5583 10.115 80.9223 9.926 81.3283 9.786C81.7343 9.632 82.1753 9.555 82.6513 9.555ZM100.054 15.393C100.054 16.541 99.795 17.556 99.277 18.438C98.773 19.306 98.087 19.985 97.219 20.475C96.365 20.965 95.406 21.21 94.342 21.21C93.278 21.21 92.312 20.965 91.444 20.475C90.59 19.985 89.904 19.306 89.386 18.438C88.882 17.556 88.63 16.541 88.63 15.393C88.63 14.245 88.882 13.237 89.386 12.369C89.904 11.487 90.59 10.801 91.444 10.311C92.312 9.807 93.278 9.555 94.342 9.555C95.406 9.555 96.365 9.807 97.219 10.311C98.087 10.801 98.773 11.487 99.277 12.369C99.795 13.237 100.054 14.245 100.054 15.393ZM97.534 15.393C97.534 14.679 97.387 14.063 97.093 13.545C96.813 13.013 96.428 12.6 95.938 12.306C95.462 12.012 94.93 11.865 94.342 11.865C93.754 11.865 93.215 12.012 92.725 12.306C92.249 12.6 91.864 13.013 91.57 13.545C91.29 14.063 91.15 14.679 91.15 15.393C91.15 16.093 91.29 16.709 91.57 17.241C91.864 17.759 92.249 18.165 92.725 18.459C93.215 18.753 93.754 18.9 94.342 18.9C94.93 18.9 95.462 18.753 95.938 18.459C96.428 18.165 96.813 17.759 97.093 17.241C97.387 16.709 97.534 16.093 97.534 15.393ZM113.159 15.393C113.159 16.541 112.9 17.556 112.382 18.438C111.878 19.306 111.192 19.985 110.324 20.475C109.47 20.965 108.511 21.21 107.447 21.21C106.383 21.21 105.417 20.965 104.549 20.475C103.695 19.985 103.009 19.306 102.491 18.438C101.987 17.556 101.735 16.541 101.735 15.393C101.735 14.245 101.987 13.237 102.491 12.369C103.009 11.487 103.695 10.801 104.549 10.311C105.417 9.807 106.383 9.555 107.447 9.555C108.511 9.555 109.47 9.807 110.324 10.311C111.192 10.801 111.878 11.487 112.382 12.369C112.9 13.237 113.159 14.245 113.159 15.393ZM110.639 15.393C110.639 14.679 110.492 14.063 110.198 13.545C109.918 13.013 109.533 12.6 109.043 12.306C108.567 12.012 108.035 11.865 107.447 11.865C106.859 11.865 106.32 12.012 105.83 12.306C105.354 12.6 104.969 13.013 104.675 13.545C104.395 14.063 104.255 14.679 104.255 15.393C104.255 16.093 104.395 16.709 104.675 17.241C104.969 17.759 105.354 18.165 105.83 18.459C106.32 18.753 106.859 18.9 107.447 18.9C108.035 18.9 108.567 18.753 109.043 18.459C109.533 18.165 109.918 17.759 110.198 17.241C110.492 16.709 110.639 16.093 110.639 15.393ZM119.546 21C119.154 21 118.832 20.881 118.58 20.643C118.328 20.391 118.202 20.083 118.202 19.719V7.539H120.932V19.719C120.932 20.083 120.799 20.391 120.533 20.643C120.281 20.881 119.952 21 119.546 21ZM114.905 8.715C114.541 8.715 114.233 8.603 113.981 8.379C113.743 8.155 113.624 7.861 113.624 7.497C113.624 7.133 113.743 6.846 113.981 6.636C114.233 6.412 114.541 6.3 114.905 6.3H124.229C124.593 6.3 124.894 6.412 125.132 6.636C125.384 6.86 125.51 7.154 125.51 7.518C125.51 7.882 125.384 8.176 125.132 8.4C124.894 8.61 124.593 8.715 124.229 8.715H114.905ZM135.637 9.765C136.001 9.765 136.302 9.891 136.54 10.143C136.778 10.381 136.897 10.682 136.897 11.046V19.971C136.897 21.259 136.652 22.281 136.162 23.037C135.686 23.807 135.042 24.36 134.23 24.696C133.418 25.032 132.508 25.2 131.5 25.2C131.052 25.2 130.576 25.165 130.072 25.095C129.568 25.025 129.155 24.92 128.833 24.78C128.413 24.598 128.119 24.367 127.951 24.087C127.797 23.821 127.769 23.534 127.867 23.226C127.993 22.82 128.196 22.54 128.476 22.386C128.756 22.246 129.05 22.232 129.358 22.344C129.582 22.414 129.876 22.519 130.24 22.659C130.604 22.813 131.024 22.89 131.5 22.89C132.144 22.89 132.676 22.799 133.096 22.617C133.53 22.449 133.852 22.155 134.062 21.735C134.286 21.329 134.398 20.769 134.398 20.055V18.648L134.839 19.152C134.601 19.614 134.3 19.999 133.936 20.307C133.586 20.601 133.166 20.825 132.676 20.979C132.186 21.133 131.626 21.21 130.996 21.21C130.254 21.21 129.603 21.042 129.043 20.706C128.497 20.356 128.07 19.88 127.762 19.278C127.454 18.662 127.3 17.962 127.3 17.178V11.046C127.3 10.682 127.419 10.381 127.657 10.143C127.895 9.891 128.196 9.765 128.56 9.765C128.924 9.765 129.225 9.891 129.463 10.143C129.701 10.381 129.82 10.682 129.82 11.046V16.422C129.82 17.332 130.016 17.976 130.408 18.354C130.814 18.718 131.374 18.9 132.088 18.9C132.578 18.9 132.991 18.809 133.327 18.627C133.663 18.431 133.922 18.151 134.104 17.787C134.286 17.409 134.377 16.954 134.377 16.422V11.046C134.377 10.682 134.496 10.381 134.734 10.143C134.972 9.891 135.273 9.765 135.637 9.765Z" fill="#3BB77E"/>
<path d="M53.566 38.95C53.7153 38.95 53.8413 39.0013 53.944 39.104C54.0467 39.2067 54.098 39.3327 54.098 39.482C54.098 39.6313 54.0467 39.7573 53.944 39.86C53.8413 39.9533 53.7153 40 53.566 40H48.484C48.316 40 48.176 39.9533 48.064 39.86C47.9613 39.7573 47.91 39.622 47.91 39.454C47.91 39.3047 47.966 39.1693 48.078 39.048L51.242 35.59C51.7087 35.086 52.0587 34.6147 52.292 34.176C52.5347 33.728 52.656 33.3313 52.656 32.986C52.656 32.4167 52.4833 31.964 52.138 31.628C51.802 31.2827 51.3493 31.11 50.78 31.11C50.528 31.11 50.276 31.166 50.024 31.278C49.772 31.3807 49.5433 31.5253 49.338 31.712C49.1327 31.8893 48.9647 32.09 48.834 32.314C48.7593 32.4353 48.68 32.5147 48.596 32.552C48.5213 32.58 48.442 32.594 48.358 32.594C48.218 32.594 48.092 32.5473 47.98 32.454C47.868 32.3513 47.812 32.2347 47.812 32.104C47.812 32.0013 47.84 31.908 47.896 31.824C47.952 31.7307 48.0267 31.628 48.12 31.516C48.316 31.2453 48.5587 31.0027 48.848 30.788C49.1467 30.564 49.4687 30.3867 49.814 30.256C50.1687 30.1253 50.514 30.06 50.85 30.06C51.4473 30.06 51.9653 30.1767 52.404 30.41C52.852 30.6433 53.1973 30.9747 53.44 31.404C53.6827 31.8333 53.804 32.3373 53.804 32.916C53.804 33.4107 53.6547 33.9567 53.356 34.554C53.0573 35.1513 52.6187 35.758 52.04 36.374L49.59 39.09L49.45 38.95H53.566ZM56.1923 39.986C55.9963 39.986 55.8423 39.93 55.7303 39.818C55.6276 39.706 55.5763 39.552 55.5763 39.356V39.076C55.5763 38.8707 55.6276 38.712 55.7303 38.6C55.8423 38.488 55.9963 38.432 56.1923 38.432H56.3043C56.5096 38.432 56.6636 38.488 56.7663 38.6C56.869 38.712 56.9203 38.8707 56.9203 39.076V39.356C56.9203 39.552 56.869 39.706 56.7663 39.818C56.6636 39.93 56.5096 39.986 56.3043 39.986H56.1923ZM61.8917 40.14C61.1171 40.14 60.4684 39.9207 59.9457 39.482C59.4324 39.0433 59.0404 38.4413 58.7697 37.676C58.5084 36.9107 58.3777 36.052 58.3777 35.1C58.3777 34.1293 58.5084 33.266 58.7697 32.51C59.0404 31.754 59.4324 31.1567 59.9457 30.718C60.4684 30.2793 61.1171 30.06 61.8917 30.06C62.6664 30.06 63.3104 30.2793 63.8237 30.718C64.3464 31.1567 64.7384 31.754 64.9997 32.51C65.2611 33.266 65.3917 34.1293 65.3917 35.1C65.3917 36.052 65.2611 36.9107 64.9997 37.676C64.7384 38.4413 64.3464 39.0433 63.8237 39.482C63.3104 39.9207 62.6664 40.14 61.8917 40.14ZM61.8917 39.006C62.3864 39.006 62.8017 38.8473 63.1377 38.53C63.4831 38.2127 63.7444 37.7647 63.9217 37.186C64.0991 36.598 64.1877 35.9027 64.1877 35.1C64.1877 34.288 64.0991 33.5927 63.9217 33.014C63.7444 32.426 63.4831 31.978 63.1377 31.67C62.8017 31.3527 62.3864 31.194 61.8917 31.194C61.3971 31.194 60.9771 31.3527 60.6317 31.67C60.2957 31.978 60.0344 32.426 59.8477 33.014C59.6704 33.5927 59.5817 34.288 59.5817 35.1C59.5817 35.9027 59.6704 36.598 59.8477 37.186C60.0344 37.7647 60.2957 38.2127 60.6317 38.53C60.9771 38.8473 61.3971 39.006 61.8917 39.006Z" fill="#ADADAD"/>
</svg>
